# xmcd CD database file
#
# Track frame offsets:
#	150
#	15701
#	28358
#	49123
#	61857
#	77562
#	90711
#	105539
#	122328
#
# Disc length: 1990 seconds
#
# Revision: 0
# Processed by: cddbd v1.5.1PL2 Copyright (c) Steve Scherf et al.
# Submitted via: CDex 1.51
#
DISCID=6707c409
DTITLE=Tommy Fyfe - Dr. Tom's Blues Tonic
DYEAR=2002
DGENRE=Blues
TTITLE0=All Night N' All Day
TTITLE1=Funky But...
TTITLE2=Dr. Tom's Blues Tonic
TTITLE3=Lost Love
TTITLE4=Driftin'
TTITLE5=Miss You So
TTITLE6=Jack Daniel's Strut
TTITLE7=It's Hard
TTITLE8=Red Hot Boogie
EXTD=YEAR: 2002
EXTT0=
EXTT1=
EXTT2=
EXTT3=
EXTT4=
EXTT5=
EXTT6=
EXTT7=
EXTT8=
PLAYORDER=
